# xmcd
#
# Track frame offsets: 
#        183
#        24338
#        42850
#        59913
#        81548
#        95060
#        120030
#        139613
#        158030
#        178848
#
# Disc length: 2527 seconds
#
# Revision: 0
# Processed by: cddbd v1.5.2PL0 Copyright (c) Steve Scherf et al.
# Submitted via: ExactAudioCopy v1.0b1
#
DISCID=8209dd0a
DTITLE=葉歡 - 記得我們有約
DYEAR=2011
DGENRE=Country
TTITLE0=記得我們有約
TTITLE1=多一點愛給自己
TTITLE2=意亂情迷
TTITLE3=夜街
TTITLE4=多說一點說甜一點
TTITLE5=讓我愛你到最後
TTITLE6=真正的溫柔
TTITLE7=獨想
TTITLE8=第幾個冬天
TTITLE9=不眠的夜
EXTD=
EXTT0=
EXTT1=
EXTT2=
EXTT3=
EXTT4=
EXTT5=
EXTT6=
EXTT7=
EXTT8=
EXTT9=
PLAYORDER=
